<?xml version="1.0" encoding="UTF-8" standalone="no"?>
<!-- Generator: Adobe Illustrator 18.1.1, SVG Export Plug-In . SVG Version: 6.00 Build 0)  -->

<svg
   xmlns:dc="http://purl.org/dc/elements/1.1/"
   xmlns:cc="http://creativecommons.org/ns#"
   xmlns:rdf="http://www.w3.org/1999/02/22-rdf-syntax-ns#"
   xmlns:svg="http://www.w3.org/2000/svg"
   xmlns="http://www.w3.org/2000/svg"
   xmlns:sodipodi="http://sodipodi.sourceforge.net/DTD/sodipodi-0.dtd"
   xmlns:inkscape="http://www.inkscape.org/namespaces/inkscape"
   version="1.1"
   id="Capa_1"
   x="0px"
   y="0px"
   viewBox="0 0 26 26"
   style="enable-background:new 0 0 26 26;"
   xml:space="preserve"
   inkscape:version="0.91 r13725"
   sodipodi:docname="delete_row.svg"><metadata
     id="metadata45"><rdf:RDF><cc:Work
         rdf:about=""><dc:format>image/svg+xml</dc:format><dc:type
           rdf:resource="http://purl.org/dc/dcmitype/StillImage" /><dc:title /></cc:Work></rdf:RDF></metadata><defs
     id="defs43" /><sodipodi:namedview
     pagecolor="#ffffff"
     bordercolor="#666666"
     borderopacity="1"
     objecttolerance="10"
     gridtolerance="10"
     guidetolerance="10"
     inkscape:pageopacity="0"
     inkscape:pageshadow="2"
     inkscape:window-width="1920"
     inkscape:window-height="1017"
     id="namedview41"
     showgrid="false"
     inkscape:zoom="18.153846"
     inkscape:cx="14.961772"
     inkscape:cy="14.604416"
     inkscape:window-x="-8"
     inkscape:window-y="-8"
     inkscape:window-maximized="1"
     inkscape:current-layer="g7" /><g
     id="g3"
     transform="matrix(0,1,-1,0,26.0005,-5e-4)"><path
       style="fill:#030104"
       d="m 13.594,20.85 0,3.15 -10,0 0,-22 10,0 0,3.15 c 0.633,-0.323 1.304,-0.565 2,-0.727 l 0,-3.423 c 0,-0.551 -0.448,-1 -1,-1 l -12,0 c -0.55,0 -1,0.449 -1,1 l 0,24 c 0,0.551 0.449,1 1,1 l 12,0 c 0.552,0 1,-0.449 1,-1 l 0,-3.424 c -0.696,-0.161 -1.367,-0.403 -2,-0.726 z"
       id="path5"
       inkscape:connector-curvature="0" /><g
       id="g7"><path
         style="fill:#030104"
         d="m 24.407,13 c 0,-3.7619999 -3.051,-6.8129999 -6.813,-6.8119999 -3.761,-0.001 -6.812,3.05 -6.812,6.8119999 0,3.762 3.051,6.813 6.813,6.813 3.762,0 6.812,-3.052 6.812,-6.813 z m -7.802,3.632 -0.001,-7.2669999 1.982,0 0,7.2679999 -1.981,-10e-4 z"
         id="path9"
         inkscape:connector-curvature="0" /></g></g><g
     id="g11" /><g
     id="g13" /><g
     id="g15" /><g
     id="g17" /><g
     id="g19" /><g
     id="g21" /><g
     id="g23" /><g
     id="g25" /><g
     id="g27" /><g
     id="g29" /><g
     id="g31" /><g
     id="g33" /><g
     id="g35" /><g
     id="g37" /><g
     id="g39" /></svg>