<?xml version="1.0" encoding="UTF-8" standalone="no"?>
<!-- Generator: Adobe Illustrator 18.1.1, SVG Export Plug-In . SVG Version: 6.00 Build 0)  -->

<svg
   xmlns:dc="http://purl.org/dc/elements/1.1/"
   xmlns:cc="http://creativecommons.org/ns#"
   xmlns:rdf="http://www.w3.org/1999/02/22-rdf-syntax-ns#"
   xmlns:svg="http://www.w3.org/2000/svg"
   xmlns="http://www.w3.org/2000/svg"
   xmlns:sodipodi="http://sodipodi.sourceforge.net/DTD/sodipodi-0.dtd"
   xmlns:inkscape="http://www.inkscape.org/namespaces/inkscape"
   version="1.1"
   id="Capa_1"
   x="0px"
   y="0px"
   viewBox="0 0 18.151 18.151"
   style="enable-background:new 0 0 18.151 18.151;"
   xml:space="preserve"
   inkscape:version="0.91 r13725"
   sodipodi:docname="insert_row.svg"><metadata
     id="metadata47"><rdf:RDF><cc:Work
         rdf:about=""><dc:format>image/svg+xml</dc:format><dc:type
           rdf:resource="http://purl.org/dc/dcmitype/StillImage" /><dc:title></dc:title></cc:Work></rdf:RDF></metadata><defs
     id="defs45" /><sodipodi:namedview
     pagecolor="#ffffff"
     bordercolor="#666666"
     borderopacity="1"
     objecttolerance="10"
     gridtolerance="10"
     guidetolerance="10"
     inkscape:pageopacity="0"
     inkscape:pageshadow="2"
     inkscape:window-width="1176"
     inkscape:window-height="795"
     id="namedview43"
     showgrid="false"
     inkscape:zoom="13.002039"
     inkscape:cx="9.0754995"
     inkscape:cy="9.0754995"
     inkscape:window-x="321"
     inkscape:window-y="89"
     inkscape:window-maximized="0"
     inkscape:current-layer="Capa_1" /><g
     id="g3"
     transform="matrix(0,1,-1,0,18.151,0)"><g
       id="g5"><path
         style="fill:#030104"
         d="m 6.237,16.546 -2.588,0 0,-14.942 5.916,0 0,5.728 c 0.474,-0.122 0.968,-0.194 1.479,-0.194 0.042,0 0.083,0.006 0.125,0.006 l 0,-7.144 -9.125,0 0,18.15 5.934,0 C 7.295,17.736 6.704,17.19 6.237,16.546 Z"
         id="path7"
         inkscape:connector-curvature="0" /><path
         style="fill:#030104"
         d="m 11.169,8.275 c -2.723,0 -4.938,2.215 -4.938,4.938 0,2.723 2.215,4.938 4.938,4.938 2.723,0 4.938,-2.215 4.938,-4.938 0,-2.723 -2.215,-4.938 -4.938,-4.938 z m 0,8.535 c -1.983,0 -3.598,-1.612 -3.598,-3.598 0,-1.983 1.614,-3.597 3.598,-3.597 1.984,0 3.597,1.613 3.597,3.597 0,1.986 -1.613,3.598 -3.597,3.598 z"
         id="path9"
         inkscape:connector-curvature="0" /><polygon
         style="fill:#030104"
         points="10.502,11.073 10.502,12.578 9.03,12.578 9.03,13.868 10.502,13.868 10.502,15.352 11.792,15.352 11.792,13.868 13.309,13.868 13.309,12.578 11.792,12.578 11.792,11.073 "
         id="polygon11" /></g></g><g
     id="g13" /><g
     id="g15" /><g
     id="g17" /><g
     id="g19" /><g
     id="g21" /><g
     id="g23" /><g
     id="g25" /><g
     id="g27" /><g
     id="g29" /><g
     id="g31" /><g
     id="g33" /><g
     id="g35" /><g
     id="g37" /><g
     id="g39" /><g
     id="g41" /></svg>