<?xml version="1.0" encoding="iso-8859-1"?>
<!-- Generator: Adobe Illustrator 16.0.0, SVG Export Plug-In . SVG Version: 6.00 Build 0)  -->
<!DOCTYPE svg PUBLIC "-//W3C//DTD SVG 1.1//EN" "http://www.w3.org/Graphics/SVG/1.1/DTD/svg11.dtd">
<svg version="1.1" id="Capa_1" xmlns="http://www.w3.org/2000/svg" xmlns:xlink="http://www.w3.org/1999/xlink" x="0px" y="0px"
	 width="93.868px" height="93.868px" viewBox="0 0 93.868 93.868" style="enable-background:new 0 0 93.868 93.868;"
	 xml:space="preserve">
<g>
	<g>
		<path d="M75.915,0H63.367c-1.104,0-2,0.896-2,2v42.117c0,0.514,0.006,1.054,0.014,1.611c0.066,5.981,0.169,15.021-7.857,18.893
			c-1.734,0.854-4.137,1.324-6.764,1.326c-2.593,0-5.141-0.5-6.816-1.336c-7.501-3.745-7.4-11.289-7.326-16.797
			c0.007-0.496,0.013-0.976,0.013-1.432V2c0-1.104-0.896-2-2-2H17.95c-1.104,0-2,0.896-2,2v43.985
			c-0.005,11.042-0.01,20.582,14.223,27.57c4.093,2.053,10.371,3.231,17.226,3.232c6.238,0,12.133-1.005,15.799-2.702
			c13.583-6.539,14.72-17.964,14.72-29.105V2C77.915,0.896,77.021,0,75.915,0z"/>
		<path d="M75.904,81.407H17.966c-1.104,0-2,0.896-2,2v8.461c0,1.104,0.896,2,2,2h57.938c1.104,0,2-0.896,2-2v-8.461
			C77.904,82.303,77.009,81.407,75.904,81.407z"/>
	</g>
</g>
<g>
</g>
<g>
</g>
<g>
</g>
<g>
</g>
<g>
</g>
<g>
</g>
<g>
</g>
<g>
</g>
<g>
</g>
<g>
</g>
<g>
</g>
<g>
</g>
<g>
</g>
<g>
</g>
<g>
</g>
</svg>
