<?xml version="1.0" encoding="iso-8859-1"?>
<!-- Generator: Adobe Illustrator 16.0.0, SVG Export Plug-In . SVG Version: 6.00 Build 0)  -->
<!DOCTYPE svg PUBLIC "-//W3C//DTD SVG 1.1//EN" "http://www.w3.org/Graphics/SVG/1.1/DTD/svg11.dtd">
<svg version="1.1" id="Capa_1" xmlns="http://www.w3.org/2000/svg" xmlns:xlink="http://www.w3.org/1999/xlink" x="0px" y="0px"
	 width="107.597px" height="107.597px" viewBox="0 0 107.597 107.597" style="enable-background:new 0 0 107.597 107.597;"
	 xml:space="preserve">
<g>
	<path d="M106.983,39.152c0-2.949-1.896-5.434-4.524-6.368v-2.991c2.627-0.931,4.524-3.414,4.524-6.363
		c0-2.949-1.896-5.434-4.524-6.364v-4.182c2.196-1.137,3.711-3.403,3.711-6.047C106.17,3.06,103.11,0,99.334,0
		c-3.179,0-5.822,2.175-6.59,5.112h-1.56c-1.015-2.461-3.435-4.2-6.261-4.2c-2.832,0-5.25,1.739-6.266,4.2h-2.834
		c-1.015-2.461-3.434-4.2-6.261-4.2c-2.831,0-5.25,1.739-6.265,4.2H60.25c-1.015-2.461-3.43-4.2-6.261-4.2s-5.246,1.739-6.261,4.2
		h-2.774c-1.015-2.461-3.434-4.2-6.261-4.2c-2.831,0-5.25,1.739-6.265,4.2h-3.197c-1.015-2.461-3.43-4.2-6.261-4.2
		s-5.246,1.739-6.261,4.2h-2.674c-0.897-2.731-3.434-4.716-6.467-4.716c-3.777,0-6.837,3.061-6.837,6.837
		c0,3.029,1.98,5.563,4.705,6.464v3.276c-2.781,0.844-4.823,3.396-4.823,6.456s2.042,5.612,4.823,6.455v2.808
		c-2.781,0.844-4.823,3.399-4.823,6.46c0,3.056,2.042,5.612,4.823,6.455v2.385c-2.781,0.843-4.823,3.396-4.823,6.456
		c0,3.059,2.042,5.612,4.823,6.455v2.66c-2.781,0.842-4.823,3.397-4.823,6.459c0,3.057,2.042,5.611,4.823,6.454v2.445
		c-2.781,0.844-4.823,3.399-4.823,6.459c0,3.058,2.042,5.612,4.823,6.457v2.485c-2.515,1.013-4.292,3.461-4.292,6.338
		c0,3.777,3.06,6.837,6.837,6.837c3.27,0,5.994-2.298,6.669-5.363h1.087c0.878,2.724,3.407,4.711,6.421,4.711
		c3.018,0,5.547-1.987,6.425-4.711h2.514c0.877,2.724,3.407,4.711,6.421,4.711c3.018,0,5.547-1.987,6.425-4.711h2.728
		c0.877,2.724,3.403,4.711,6.421,4.711s5.544-1.987,6.421-4.711h2.453c0.877,2.724,3.406,4.711,6.42,4.711
		c3.019,0,5.548-1.987,6.426-4.711h2.877c0.877,2.724,3.402,4.711,6.421,4.711s5.543-1.987,6.421-4.711h2.385
		c0.637,3.117,3.393,5.463,6.7,5.463c3.777,0,6.837-3.062,6.837-6.836c0-2.76-1.641-5.121-3.994-6.205v-2.811
		c2.627-0.937,4.524-3.421,4.524-6.365c0-2.948-1.896-5.433-4.524-6.367v-2.629c2.627-0.935,4.524-3.418,4.524-6.362
		c0-2.949-1.896-5.435-4.524-6.367v-2.844c2.627-0.931,4.524-3.414,4.524-6.363s-1.896-5.434-4.524-6.363v-2.568
		C105.086,44.58,106.983,42.097,106.983,39.152z M90.737,90.413H17.156V16.832h73.581V90.413z"/>
</g>
<g>
</g>
<g>
</g>
<g>
</g>
<g>
</g>
<g>
</g>
<g>
</g>
<g>
</g>
<g>
</g>
<g>
</g>
<g>
</g>
<g>
</g>
<g>
</g>
<g>
</g>
<g>
</g>
<g>
</g>
</svg>
