<?xml version="1.0" encoding="iso-8859-1"?>
<!-- Generator: Adobe Illustrator 16.0.0, SVG Export Plug-In . SVG Version: 6.00 Build 0)  -->
<!DOCTYPE svg PUBLIC "-//W3C//DTD SVG 1.1//EN" "http://www.w3.org/Graphics/SVG/1.1/DTD/svg11.dtd">
<svg version="1.1" id="Capa_1" xmlns="http://www.w3.org/2000/svg" xmlns:xlink="http://www.w3.org/1999/xlink" x="0px" y="0px"
	 width="341.102px" height="341.102px" viewBox="0 0 341.102 341.102" style="enable-background:new 0 0 341.102 341.102;"
	 xml:space="preserve">
<g>
	<path d="M327.703,204.936c-0.043-0.06-0.094-0.111-0.139-0.171c-0.045-0.059-0.08-0.122-0.127-0.18
		c-0.707-0.906-17.266-21.94-39.258-38.559V46.442c7.588-4.246,12.73-12.356,12.73-21.65C300.91,11.123,289.789,0,276.117,0H25.703
		C12.03,0,0.91,11.123,0.91,24.792c0,9.293,5.142,17.404,12.729,21.65v273.413c0,11.733,9.515,21.247,21.246,21.247h232.048
		c11.732,0,21.246-9.514,21.246-21.247v-64.733c-5.812-1.686-12.346-3.983-19.838-6.973c-6.797-2.711-14.365-6.004-22.656-9.848
		v60.305H56.135V51.943h0.646c23.109,22.976,51.62,52.779,71.341,35.267c11.042-9.804,20.262-37.099,41.434-26.647
		c31.015,15.311,4.372,49.588,1.809,70.694c-6.16,50.646,53.027,36.853,52.166-7.935c-0.666-34.786-11.521-56.976,1.477-71.378
		h20.68v136.391c9.48,4.724,42.494,17.284,42.494,17.284v-6.76c10.803,10.271,18.367,19.623,19.434,20.959
		c1.729,2.391,3.074,4.412,4.107,6.094c-11.83-2.629-39.52-12.133-101.529-44.85c-29.15-15.379-57.019-31.211-74.4-41.268
		c0.01-0.28,0.021-0.561,0.021-0.843c0-13.509-10.99-24.5-24.5-24.5c-13.51,0-24.5,10.991-24.5,24.5c0,13.509,10.99,24.5,24.5,24.5
		c3.938,0,7.659-0.939,10.959-2.597c18.979,10.991,51.068,29.229,83.828,46.291c30.271,15.765,55.268,27.498,74.293,34.873
		c17.043,6.606,29.387,9.863,38.498,9.863c7.436,0,12.721-2.172,16.643-6.464C347.557,232.252,333.133,212.406,327.703,204.936z"/>
</g>
<g>
</g>
<g>
</g>
<g>
</g>
<g>
</g>
<g>
</g>
<g>
</g>
<g>
</g>
<g>
</g>
<g>
</g>
<g>
</g>
<g>
</g>
<g>
</g>
<g>
</g>
<g>
</g>
<g>
</g>
</svg>
