<?xml version="1.0" encoding="UTF-8" standalone="no"?>
<!-- Created with Inkscape (http://www.inkscape.org/) -->

<svg
   xmlns:dc="http://purl.org/dc/elements/1.1/"
   xmlns:cc="http://creativecommons.org/ns#"
   xmlns:rdf="http://www.w3.org/1999/02/22-rdf-syntax-ns#"
   xmlns:svg="http://www.w3.org/2000/svg"
   xmlns="http://www.w3.org/2000/svg"
   xmlns:sodipodi="http://sodipodi.sourceforge.net/DTD/sodipodi-0.dtd"
   xmlns:inkscape="http://www.inkscape.org/namespaces/inkscape"
   width="210mm"
   height="297mm"
   viewBox="0 0 744.09448819 1052.3622047"
   id="svg2"
   version="1.1"
   inkscape:version="0.91 r13725"
   sodipodi:docname="Zeichnung.svg">
  <defs
     id="defs4" />
  <sodipodi:namedview
     id="base"
     pagecolor="#ffffff"
     bordercolor="#666666"
     borderopacity="1.0"
     inkscape:pageopacity="0.0"
     inkscape:pageshadow="2"
     inkscape:zoom="2.8284271"
     inkscape:cx="233.29143"
     inkscape:cy="973.89772"
     inkscape:document-units="px"
     inkscape:current-layer="flowRoot3344"
     showgrid="false"
     inkscape:window-width="1920"
     inkscape:window-height="1017"
     inkscape:window-x="-8"
     inkscape:window-y="-8"
     inkscape:window-maximized="1" />
  <metadata
     id="metadata7">
    <rdf:RDF>
      <cc:Work
         rdf:about="">
        <dc:format>image/svg+xml</dc:format>
        <dc:type
           rdf:resource="http://purl.org/dc/dcmitype/StillImage" />
        <dc:title />
      </cc:Work>
    </rdf:RDF>
  </metadata>
  <g
     inkscape:label="Ebene 1"
     inkscape:groupmode="layer"
     id="layer1">
    <g
       transform="translate(-10,-75.714286)"
       style="font-style:normal;font-weight:normal;font-size:40px;line-height:100%;font-family:sans-serif;letter-spacing:-0.85000002px;word-spacing:0px;fill:#000000;fill-opacity:1;stroke:none;stroke-width:1px;stroke-linecap:butt;stroke-linejoin:miter;stroke-opacity:1"
       id="flowRoot3344">
      <path
         d="m 19.840302,128.51603 11.953125,0 29.091797,54.8877 0,-54.8877 8.613282,0 0,65.61035 -11.953125,0 -29.091797,-54.88769 0,54.88769 -8.613282,0 0,-65.61035 z"
         style="font-style:normal;font-variant:normal;font-weight:normal;font-stretch:normal;font-size:90px;line-height:100%;font-family:sans-serif;-inkscape-font-specification:'sans-serif, Normal';text-align:start;writing-mode:lr-tb;text-anchor:start;fill:#878787;fill-opacity:1"
         id="path3355"
         inkscape:connector-curvature="0" />
      <path
         d="m 112.94537,134.53654 q -9.66797,0 -15.380846,7.20703 -5.66895,7.20703 -5.66895,19.64355 0,12.39258 5.66895,19.59961 5.712876,7.20703 15.380846,7.20703 9.66797,0 15.29297,-7.20703 5.66895,-7.20703 5.66895,-19.59961 0,-12.43652 -5.66895,-19.64355 -5.625,-7.20703 -15.29297,-7.20703 z m 0,-7.20703 q 13.79883,0 22.06055,9.27246 8.26172,9.22851 8.26172,24.78515 0,15.5127 -8.26172,24.78516 -8.26172,9.22852 -22.06055,9.22852 -13.842766,0 -22.148426,-9.22852 -8.261718,-9.22852 -8.261718,-24.78516 0,-15.55664 8.261718,-24.78515 8.30566,-9.27246 22.148426,-9.27246 z"
         style="font-style:normal;font-variant:normal;font-weight:normal;font-stretch:normal;font-size:90px;line-height:100%;font-family:sans-serif;-inkscape-font-specification:'sans-serif, Normal';text-align:start;writing-mode:lr-tb;text-anchor:start;fill:#878787;fill-opacity:1"
         id="path3357"
         inkscape:connector-curvature="0" />
      <path
         d="m 171.64127,194.12638 -25.04883,-65.61035 9.27247,0 20.78613,55.23926 20.83008,-55.23926 9.22851,0 -25.00488,65.61035 -10.06348,0 z"
         style="font-style:normal;font-variant:normal;font-weight:normal;font-stretch:normal;font-size:90px;line-height:100%;font-family:sans-serif;-inkscape-font-specification:'sans-serif, Normal';text-align:start;writing-mode:lr-tb;text-anchor:start;fill:#878787;fill-opacity:1"
         id="path3359"
         inkscape:connector-curvature="0" />
      <path
         d="m 255.52369,137.26115 -14.72933,40.03394 26.81429,-7.38258 z m -5.00977,-8.74512 10.06348,0 25.00488,65.61035 -9.22851,0 -8.74265,-24.21384 -26.80911,7.38279 -5.97656,16.83105 -9.36035,0 z"
         style="font-style:normal;font-variant:normal;font-weight:normal;font-stretch:normal;font-size:90px;line-height:100%;font-family:sans-serif;-inkscape-font-specification:'sans-serif, Normal';text-align:start;writing-mode:lr-tb;text-anchor:start;fill:#78a6f7;fill-opacity:1"
         id="path3361"
         inkscape:connector-curvature="0"
         sodipodi:nodetypes="ccccccccccccc" />
      <flowRoot
         xml:space="preserve"
         id="flowRoot3382"
         style="fill:black;stroke:none;stroke-opacity:1;stroke-width:1px;stroke-linejoin:miter;stroke-linecap:butt;fill-opacity:1;font-family:sans-serif;font-style:normal;font-weight:normal;font-size:40px;line-height:125%;letter-spacing:0px;word-spacing:0px"><flowRegion
           id="flowRegion3384"><rect
             id="rect3386"
             width="200.81833"
             height="48.790367"
             x="71.417786"
             y="15.036561" /></flowRegion><flowPara
           id="flowPara3388" /></flowRoot>      <flowRoot
         xml:space="preserve"
         id="flowRoot3390"
         style="fill:black;stroke:none;stroke-opacity:1;stroke-width:1px;stroke-linejoin:miter;stroke-linecap:butt;fill-opacity:1;font-family:sans-serif;font-style:normal;font-weight:normal;font-size:40px;line-height:125%;letter-spacing:0px;word-spacing:0px"><flowRegion
           id="flowRegion3392"><rect
             id="rect3394"
             width="587"
             height="164"
             x="9"
             y="91.362206" /></flowRegion><flowPara
           id="flowPara3396" /></flowRoot>      <g
         transform="translate(346.95276,-29.252348)"
         style="font-style:normal;font-weight:normal;font-size:90px;line-height:125%;font-family:sans-serif;letter-spacing:0px;word-spacing:0px;fill:#78a6f7;fill-opacity:1;stroke:none;stroke-width:1px;stroke-linecap:butt;stroke-linejoin:miter;stroke-opacity:1"
         id="flowRoot3398">
        <path
           d="m 25.48877,191.38124 q 0,9.76562 4.15039,15.44189 4.699707,6.40869 14.099121,6.40869 9.399414,0 14.221192,-7.20215 4.15039,-6.22558 4.15039,-16.05224 0,-9.33838 -4.394531,-15.01465 -4.821777,-6.34766 -13.85498,-6.34766 -9.277344,0 -14.160157,7.01904 -4.211425,6.04249 -4.211425,15.74708 z m 36.499023,26.48925 0,-9.88769 q -5.493164,12.26806 -18.981934,12.26806 -12.268066,0 -19.287109,-8.60595 -6.591797,-7.99561 -6.591797,-20.50782 0,-12.20703 6.347656,-20.44677 6.958008,-8.97217 18.798828,-8.97217 14.160157,0 19.714356,11.90185 l 0,-9.88769 7.507324,0 0,54.13818 -7.507324,0 z"
           style="font-style:oblique;font-variant:normal;font-weight:bold;font-stretch:normal;font-size:125px;font-family:Futura;-inkscape-font-specification:'Futura Bold Oblique';fill:#78a6f7;fill-opacity:1"
           id="path5208"
           inkscape:connector-curvature="0" />
        <path
           d="m 97.876465,217.87049 -7.751465,0 0,-94.60449 7.751465,0 0,94.60449 z"
           style="font-style:oblique;font-variant:normal;font-weight:bold;font-stretch:normal;font-size:125px;font-family:Futura;-inkscape-font-specification:'Futura Bold Oblique';fill:#78a6f7;fill-opacity:1"
           id="path5210"
           inkscape:connector-curvature="0" />
        <path
           d="m 160.55957,173.62 q -7.56836,-5.24902 -16.8457,-5.24902 -10.37598,0 -16.29639,6.71387 -5.7373,6.40869 -5.7373,16.90674 0,9.64355 6.16455,15.74707 6.22558,6.10351 15.86914,6.10351 9.0332,0 17.70019,-6.10351 l 0,8.23974 q -7.93457,4.5166 -19.104,4.5166 -12.57324,0 -20.44678,-8.17871 -7.8125,-8.17871 -7.8125,-20.81298 0,-13.30567 8.23975,-21.54541 8.23974,-8.23975 21.54541,-8.23975 9.88769,0 16.8457,3.66211 l -0.12207,8.23974 z"
           style="font-style:oblique;font-variant:normal;font-weight:bold;font-stretch:normal;font-size:125px;font-family:Futura;-inkscape-font-specification:'Futura Bold Oblique';fill:#78a6f7;fill-opacity:1"
           id="path5212"
           inkscape:connector-curvature="0" />
      </g>
      <text
         xml:space="preserve"
         style="font-style:normal;font-weight:normal;font-size:40px;line-height:125%;font-family:sans-serif;letter-spacing:0px;word-spacing:0px;fill:#000000;fill-opacity:1;stroke:none;stroke-width:1px;stroke-linecap:butt;stroke-linejoin:miter;stroke-opacity:1"
         x="544.57275"
         y="126.81329"
         id="text3355"
         sodipodi:linespacing="125%"><tspan
           sodipodi:role="line"
           id="tspan3357"
           x="544.57275"
           y="126.81329" /></text>
      <path
         style="font-style:normal;font-variant:normal;font-weight:normal;font-stretch:normal;font-size:90px;line-height:100%;font-family:sans-serif;-inkscape-font-specification:'sans-serif, Normal';text-align:start;letter-spacing:-0.85000002px;word-spacing:0px;writing-mode:lr-tb;text-anchor:start;fill:#78a6f7;fill-opacity:1;stroke:none;stroke-width:1px;stroke-linecap:butt;stroke-linejoin:miter;stroke-opacity:1"
         d="m 292.27101,128.51371 0,65.60937 42.2754,0 0,-7.4707 -33.39844,0 0,-22.77149 0,-1.00195 0,-7.4707 0,-0.27735 0,-19.14648 32.60742,0 0,-7.4707 -41.48438,0 z"
         id="path3363-5"
         inkscape:connector-curvature="0" />
      <path
         style="opacity:1;fill:none;fill-opacity:1;stroke:#78a6f7;stroke-width:9.01399994;stroke-miterlimit:4;stroke-dasharray:none;stroke-opacity:1"
         d="m 353.97849,162.9478 a 72.692963,72.692963 0 0 1 -72.69296,72.69296 72.692963,72.692963 0 0 1 -72.69296,-72.69296 72.692963,72.692963 0 0 1 72.69296,-72.69297 72.692963,72.692963 0 0 1 72.69296,72.69297 z"
         id="path5286"
         inkscape:connector-curvature="0" />
    </g>
    <flowRoot
       xml:space="preserve"
       id="flowRoot3336"
       style="fill:black;stroke:none;stroke-opacity:1;stroke-width:1px;stroke-linejoin:miter;stroke-linecap:butt;fill-opacity:1;font-family:sans-serif;font-style:normal;font-weight:normal;font-size:40px;line-height:125%;letter-spacing:0px;word-spacing:0px"><flowRegion
         id="flowRegion3338"><rect
           id="rect3340"
           width="312.85715"
           height="125.71429"
           x="11.428572"
           y="83.790779" /></flowRegion><flowPara
         id="flowPara3342" /></flowRoot>  </g>
</svg>
